<mxfile host="app.diagrams.net" modified="2022-07-14T08:15:34.908Z" agent="5.0 (Windows)" etag="mr_OEcXygGOlIXfd4WM1" version="20.1.1" type="github" pages="6">
  <diagram id="WUeOW4xocvJnwIStr6cf" name="Page-2">
    <mxGraphModel dx="1422" dy="844" grid="1" gridSize="10" guides="1" tooltips="1" connect="1" arrows="1" fold="1" page="1" pageScale="1" pageWidth="1169" pageHeight="827" background="#FFFFFF" math="0" shadow="0">
      <root>
        <mxCell id="0" />
        <mxCell id="1" parent="0" />
        <mxCell id="0_tOxYU7AnkBkA2acZZy-1" value="" style="whiteSpace=wrap;html=1;aspect=fixed;" parent="1" vertex="1">
          <mxGeometry x="110" y="40" width="330" height="330" as="geometry" />
        </mxCell>
        <mxCell id="0_tOxYU7AnkBkA2acZZy-3" value="" style="line;strokeWidth=2;html=1;" parent="1" vertex="1">
          <mxGeometry x="110" y="70" width="329" height="10" as="geometry" />
        </mxCell>
        <mxCell id="0_tOxYU7AnkBkA2acZZy-4" value="&lt;font face=&quot;Times New Roman&quot;&gt;Identifikasi Masalah&lt;/font&gt;" style="text;html=1;fontSize=24;fontStyle=1;verticalAlign=middle;align=center;" parent="1" vertex="1">
          <mxGeometry x="245" y="50" width="70" height="20" as="geometry" />
        </mxCell>
        <mxCell id="0_tOxYU7AnkBkA2acZZy-8" value="&lt;font style=&quot;font-size: 16px;&quot;&gt;1. Proses pelaporan permasalahan dari pengguna masih secara manual&lt;/font&gt;" style="rounded=1;whiteSpace=wrap;html=1;fontFamily=Times New Roman;fontSize=14;" parent="1" vertex="1">
          <mxGeometry x="130.5" y="90" width="289.5" height="41" as="geometry" />
        </mxCell>
        <mxCell id="0_tOxYU7AnkBkA2acZZy-12" value="" style="shape=singleArrow;direction=east;whiteSpace=wrap;html=1;fontFamily=Times New Roman;rotation=90;" parent="1" vertex="1">
          <mxGeometry x="249.53" y="393" width="60.95" height="40.21" as="geometry" />
        </mxCell>
        <mxCell id="0_tOxYU7AnkBkA2acZZy-16" value="" style="edgeStyle=segmentEdgeStyle;endArrow=classic;html=1;rounded=0;fontFamily=Times New Roman;fontSize=19;shape=flexArrow;width=26;endWidth=39;endSize=13.33;" parent="1" edge="1">
          <mxGeometry width="50" height="50" relative="1" as="geometry">
            <mxPoint x="450" y="671" as="sourcePoint" />
            <mxPoint x="650" y="131" as="targetPoint" />
            <Array as="points">
              <mxPoint x="570" y="671" />
              <mxPoint x="570" y="131" />
            </Array>
          </mxGeometry>
        </mxCell>
        <mxCell id="0_tOxYU7AnkBkA2acZZy-24" value="&lt;div style=&quot;font-size: 16px;&quot;&gt;&amp;nbsp;2. Hasil laporan yang tidak terjadi secara sistematis dan untuk memaksimalkan proses aktivasi&amp;nbsp; konsumen menjadi lebih efektif&lt;/div&gt;" style="rounded=1;whiteSpace=wrap;html=1;fontFamily=Times New Roman;fontSize=14;" parent="1" vertex="1">
          <mxGeometry x="127.75" y="147" width="292.25" height="73" as="geometry" />
        </mxCell>
        <mxCell id="0_tOxYU7AnkBkA2acZZy-25" value="&lt;font style=&quot;font-size: 16px;&quot;&gt;3. Setiap menu di website tersebut dikembangin agar lebih detail&lt;/font&gt;" style="rounded=1;whiteSpace=wrap;html=1;fontFamily=Times New Roman;fontSize=14;" parent="1" vertex="1">
          <mxGeometry x="130.25" y="230" width="289.75" height="41" as="geometry" />
        </mxCell>
        <mxCell id="0_tOxYU7AnkBkA2acZZy-26" value="&lt;div style=&quot;font-size: 16px;&quot;&gt;&lt;font style=&quot;font-size: 16px;&quot;&gt;4. Menu transaksi dan menu report yang belum sepenuhnya berfungsi baik dalam tools dan penyimpanan file hasil report&lt;/font&gt;&lt;/div&gt;" style="rounded=1;whiteSpace=wrap;html=1;fontFamily=Times New Roman;fontSize=14;" parent="1" vertex="1">
          <mxGeometry x="130.5" y="280" width="289.5" height="73" as="geometry" />
        </mxCell>
        <mxCell id="0_tOxYU7AnkBkA2acZZy-28" value="" style="whiteSpace=wrap;html=1;aspect=fixed;" parent="1" vertex="1">
          <mxGeometry x="115" y="460" width="330" height="330" as="geometry" />
        </mxCell>
        <mxCell id="0_tOxYU7AnkBkA2acZZy-29" value="" style="line;strokeWidth=2;html=1;" parent="1" vertex="1">
          <mxGeometry x="115" y="490" width="331" height="10" as="geometry" />
        </mxCell>
        <mxCell id="0_tOxYU7AnkBkA2acZZy-30" value="&lt;font face=&quot;Times New Roman&quot;&gt;Rancangan Penelitian&lt;/font&gt;" style="text;html=1;fontSize=24;fontStyle=1;verticalAlign=middle;align=center;" parent="1" vertex="1">
          <mxGeometry x="250" y="470" width="70" height="20" as="geometry" />
        </mxCell>
        <mxCell id="0_tOxYU7AnkBkA2acZZy-31" value="&lt;font style=&quot;font-size: 16px;&quot;&gt;1. Membuat sebuah sistem informasi berbasis web menggunakan framework sakai-react yang didukung oleh react-js dan node js dengan bahasa pemrogramaman yang digunakan ialah Javascript&lt;/font&gt;" style="rounded=1;whiteSpace=wrap;html=1;fontFamily=Times New Roman;fontSize=14;" parent="1" vertex="1">
          <mxGeometry x="125" y="510" width="310" height="90" as="geometry" />
        </mxCell>
        <mxCell id="0_tOxYU7AnkBkA2acZZy-33" value="&lt;font style=&quot;font-size: 16px;&quot;&gt;2. Membuat data base menggunakan MYSQL&lt;/font&gt;" style="rounded=1;whiteSpace=wrap;html=1;fontFamily=Times New Roman;fontSize=14;" parent="1" vertex="1">
          <mxGeometry x="125" y="620" width="305" height="41" as="geometry" />
        </mxCell>
        <mxCell id="0_tOxYU7AnkBkA2acZZy-35" value="&lt;font style=&quot;font-size: 16px;&quot;&gt;&amp;nbsp;3. Membuat menu transaksi dan juga menu report didalam website tersebut khususnya tentang hukum&lt;/font&gt;" style="rounded=1;whiteSpace=wrap;html=1;fontFamily=Times New Roman;fontSize=14;" parent="1" vertex="1">
          <mxGeometry x="127.75" y="680" width="310" height="60" as="geometry" />
        </mxCell>
        <mxCell id="0_tOxYU7AnkBkA2acZZy-40" value="" style="whiteSpace=wrap;html=1;aspect=fixed;" parent="1" vertex="1">
          <mxGeometry x="680" y="40" width="330" height="330" as="geometry" />
        </mxCell>
        <mxCell id="0_tOxYU7AnkBkA2acZZy-41" value="" style="line;strokeWidth=2;html=1;" parent="1" vertex="1">
          <mxGeometry x="680" y="70" width="329" height="10" as="geometry" />
        </mxCell>
        <mxCell id="0_tOxYU7AnkBkA2acZZy-42" value="&lt;font face=&quot;Times New Roman&quot;&gt;Peluang&lt;/font&gt;" style="text;html=1;fontSize=24;fontStyle=1;verticalAlign=middle;align=center;" parent="1" vertex="1">
          <mxGeometry x="815" y="50" width="70" height="20" as="geometry" />
        </mxCell>
        <mxCell id="0_tOxYU7AnkBkA2acZZy-43" value="&lt;font style=&quot;font-size: 16px;&quot;&gt;&amp;nbsp;1. Dapat membuat sebuah website sistem informasi yang akan diuji dan pengujian tersebut akan dikembangkan&lt;/font&gt;" style="rounded=1;whiteSpace=wrap;html=1;fontFamily=Times New Roman;fontSize=14;" parent="1" vertex="1">
          <mxGeometry x="689.5" y="120" width="310" height="80" as="geometry" />
        </mxCell>
        <mxCell id="0_tOxYU7AnkBkA2acZZy-45" value="&lt;font style=&quot;font-size: 16px;&quot;&gt;2. Menjalankan setiap fungsi yang ada pada website sistem informasi frederickdumalawoffice&lt;/font&gt;" style="rounded=1;whiteSpace=wrap;html=1;fontFamily=Times New Roman;fontSize=14;" parent="1" vertex="1">
          <mxGeometry x="690" y="250" width="310" height="60" as="geometry" />
        </mxCell>
        <mxCell id="0_tOxYU7AnkBkA2acZZy-46" value="" style="shape=singleArrow;direction=east;whiteSpace=wrap;html=1;fontFamily=Times New Roman;rotation=90;" parent="1" vertex="1">
          <mxGeometry x="819.53" y="393" width="60.95" height="40.21" as="geometry" />
        </mxCell>
        <mxCell id="0_tOxYU7AnkBkA2acZZy-47" value="" style="whiteSpace=wrap;html=1;aspect=fixed;" parent="1" vertex="1">
          <mxGeometry x="680" y="460" width="330" height="330" as="geometry" />
        </mxCell>
        <mxCell id="0_tOxYU7AnkBkA2acZZy-48" value="" style="line;strokeWidth=2;html=1;" parent="1" vertex="1">
          <mxGeometry x="680" y="490" width="329" height="10" as="geometry" />
        </mxCell>
        <mxCell id="0_tOxYU7AnkBkA2acZZy-49" value="&lt;font face=&quot;Times New Roman&quot;&gt;Hasil yang diinginkan&lt;/font&gt;" style="text;html=1;fontSize=24;fontStyle=1;verticalAlign=middle;align=center;" parent="1" vertex="1">
          <mxGeometry x="815" y="470" width="70" height="20" as="geometry" />
        </mxCell>
        <mxCell id="0_tOxYU7AnkBkA2acZZy-50" value="&lt;font style=&quot;font-size: 18px;&quot;&gt;Sistem informasi pada website frederickdumalawoffice yang akan dibangun dapat memberikan pelayanan yang baik kepada konsumen yang menggunakan website tersebut dan juga dapat memberikan data/informasi yang lebih akurat untuk pihak admin website tersebut dalam mengambil sebuah keputusan&lt;/font&gt;" style="rounded=1;whiteSpace=wrap;html=1;fontFamily=Times New Roman;fontSize=14;" parent="1" vertex="1">
          <mxGeometry x="690" y="510" width="310" height="270" as="geometry" />
        </mxCell>
      </root>
    </mxGraphModel>
  </diagram>
  <diagram id="yB1aPl4zuUQCgiGzaAsK" name="Page-3">
    <mxGraphModel dx="1422" dy="844" grid="1" gridSize="10" guides="1" tooltips="1" connect="1" arrows="1" fold="1" page="1" pageScale="1" pageWidth="1169" pageHeight="827" math="0" shadow="0">
      <root>
        <mxCell id="0" />
        <mxCell id="1" parent="0" />
        <mxCell id="gqJdRy2gt7oDahpHLYhy-1" value="&lt;div style=&quot;box-sizing:border-box;width:100%;background:#e4e4e4;padding:2px;&quot;&gt;Office&lt;/div&gt;&lt;table style=&quot;width:100%;font-size:1em;&quot; cellspacing=&quot;0&quot; cellpadding=&quot;2&quot;&gt;&lt;tbody&gt;&lt;tr&gt;&lt;td&gt;PK&lt;/td&gt;&lt;td&gt;Id&lt;/td&gt;&lt;/tr&gt;&lt;tr&gt;&lt;td&gt;&lt;br&gt;&lt;/td&gt;&lt;td&gt;officeId &lt;br&gt;&lt;/td&gt;&lt;/tr&gt;&lt;tr&gt;&lt;td&gt;&lt;br&gt;&lt;/td&gt;&lt;td&gt;officeName&lt;br&gt;address&lt;br&gt;&lt;/td&gt;&lt;/tr&gt;&lt;/tbody&gt;&lt;/table&gt;" style="verticalAlign=top;align=left;overflow=fill;html=1;rounded=0;shadow=0;comic=0;labelBackgroundColor=none;strokeWidth=1;fontFamily=Verdana;fontSize=12" parent="1" vertex="1">
          <mxGeometry x="75" y="272" width="120" height="90" as="geometry" />
        </mxCell>
        <mxCell id="gqJdRy2gt7oDahpHLYhy-5" value="&lt;div style=&quot;box-sizing: border-box ; width: 100% ; background: #e4e4e4 ; padding: 2px&quot;&gt;consult_details&lt;/div&gt;&lt;table style=&quot;width: 100% ; font-size: 1em&quot; cellspacing=&quot;0&quot; cellpadding=&quot;2&quot;&gt;&lt;tbody&gt;&lt;tr&gt;&lt;td&gt;PK&lt;/td&gt;&lt;td&gt;id&lt;/td&gt;&lt;/tr&gt;&lt;tr&gt;&lt;td&gt;&lt;br&gt;&lt;/td&gt;&lt;td&gt;userid&lt;/td&gt;&lt;/tr&gt;&lt;tr&gt;&lt;td&gt;&lt;br&gt;&lt;/td&gt;&lt;td&gt;noTransaction &lt;br&gt;&lt;/td&gt;&lt;/tr&gt;&lt;tr&gt;&lt;td&gt;&lt;br&gt;&lt;/td&gt;&lt;td&gt;CaseId &lt;br&gt;&lt;/td&gt;&lt;/tr&gt;&lt;tr&gt;&lt;td&gt;&lt;br&gt;&lt;/td&gt;&lt;td&gt;CaseName &lt;br&gt;&lt;/td&gt;&lt;/tr&gt;&lt;tr&gt;&lt;td&gt;&lt;br&gt;&lt;/td&gt;&lt;td&gt;quantity&lt;br&gt;price&lt;br&gt;discount&lt;br&gt;createdAt&lt;br&gt;updatedAt&lt;br&gt;&lt;/td&gt;&lt;/tr&gt;&lt;/tbody&gt;&lt;/table&gt;" style="verticalAlign=top;align=left;overflow=fill;html=1;rounded=0;shadow=0;comic=0;labelBackgroundColor=none;strokeWidth=1;fontFamily=Verdana;fontSize=12" parent="1" vertex="1">
          <mxGeometry x="725" y="362" width="110" height="190" as="geometry" />
        </mxCell>
        <mxCell id="gqJdRy2gt7oDahpHLYhy-8" value="&lt;div style=&quot;box-sizing: border-box ; width: 100% ; background: #e4e4e4 ; padding: 2px&quot;&gt;temp_consult&lt;/div&gt;&lt;table style=&quot;width: 100% ; font-size: 1em&quot; cellspacing=&quot;0&quot; cellpadding=&quot;2&quot;&gt;&lt;tbody&gt;&lt;tr&gt;&lt;td&gt;PK&lt;/td&gt;&lt;td&gt;id&lt;/td&gt;&lt;/tr&gt;&lt;tr&gt;&lt;td&gt;&lt;br&gt;&lt;/td&gt;&lt;td&gt;userid&lt;/td&gt;&lt;/tr&gt;&lt;tr&gt;&lt;td&gt;&lt;br&gt;&lt;/td&gt;&lt;td&gt;noTransaction&lt;/td&gt;&lt;/tr&gt;&lt;tr&gt;&lt;td&gt;&lt;br&gt;&lt;/td&gt;&lt;td&gt;PIC&lt;br&gt;transactionDate&lt;br&gt;createdAt&lt;br&gt;updatedAt&lt;br&gt;&lt;/td&gt;&lt;/tr&gt;&lt;/tbody&gt;&lt;/table&gt;" style="verticalAlign=top;align=left;overflow=fill;html=1;rounded=0;shadow=0;comic=0;labelBackgroundColor=none;strokeWidth=1;fontFamily=Verdana;fontSize=12" parent="1" vertex="1">
          <mxGeometry x="595" y="91" width="130" height="140" as="geometry" />
        </mxCell>
        <mxCell id="gqJdRy2gt7oDahpHLYhy-9" value="&lt;div style=&quot;box-sizing: border-box ; width: 100% ; background: #e4e4e4 ; padding: 2px&quot;&gt;case&lt;/div&gt;&lt;table style=&quot;width: 100% ; font-size: 1em&quot; cellspacing=&quot;0&quot; cellpadding=&quot;2&quot;&gt;&lt;tbody&gt;&lt;tr&gt;&lt;td&gt;PK&lt;/td&gt;&lt;td&gt;id&lt;/td&gt;&lt;/tr&gt;&lt;tr&gt;&lt;td&gt;&lt;br&gt;&lt;/td&gt;&lt;td&gt;CaseId &lt;br&gt;CaseName &lt;br&gt;CaseType &lt;br&gt;price&lt;br&gt;percentageDiscount &lt;br&gt;valueDiscount&lt;br&gt;&lt;/td&gt;&lt;/tr&gt;&lt;tr&gt;&lt;td&gt;&lt;br&gt;&lt;/td&gt;&lt;td&gt;&lt;br&gt;&lt;/td&gt;&lt;/tr&gt;&lt;tr&gt;&lt;td&gt;&lt;br&gt;&lt;/td&gt;&lt;td&gt;&lt;br&gt;&lt;/td&gt;&lt;/tr&gt;&lt;/tbody&gt;&lt;/table&gt;" style="verticalAlign=top;align=left;overflow=fill;html=1;rounded=0;shadow=0;comic=0;labelBackgroundColor=none;strokeWidth=1;fontFamily=Verdana;fontSize=12" parent="1" vertex="1">
          <mxGeometry x="915" y="461" width="180" height="130" as="geometry" />
        </mxCell>
        <mxCell id="gqJdRy2gt7oDahpHLYhy-11" value="&lt;div style=&quot;box-sizing:border-box;width:100%;background:#e4e4e4;padding:2px;&quot;&gt;auth&lt;/div&gt;&lt;table style=&quot;width:100%;font-size:1em;&quot; cellspacing=&quot;0&quot; cellpadding=&quot;2&quot;&gt;&lt;tbody&gt;&lt;tr&gt;&lt;td&gt;PK&lt;br&gt;FK&lt;br&gt;&lt;/td&gt;&lt;td&gt;id&lt;br&gt;userid&lt;br&gt;&lt;/td&gt;&lt;/tr&gt;&lt;tr&gt;&lt;td&gt;&lt;br&gt;&lt;/td&gt;&lt;td&gt;name&lt;/td&gt;&lt;/tr&gt;&lt;tr&gt;&lt;td&gt;&lt;br&gt;&lt;/td&gt;&lt;td&gt;email&lt;br&gt;password&lt;br&gt;refreshToken&lt;br&gt;createdAt&lt;br&gt;updatedAt&lt;br&gt;&lt;br&gt;&lt;/td&gt;&lt;/tr&gt;&lt;/tbody&gt;&lt;/table&gt;" style="verticalAlign=top;align=left;overflow=fill;html=1;rounded=0;shadow=0;comic=0;labelBackgroundColor=none;strokeWidth=1;fontFamily=Verdana;fontSize=12" parent="1" vertex="1">
          <mxGeometry x="75" y="86" width="110" height="150" as="geometry" />
        </mxCell>
        <mxCell id="gqJdRy2gt7oDahpHLYhy-13" value="&lt;div style=&quot;box-sizing: border-box ; width: 100% ; background: #e4e4e4 ; padding: 2px&quot;&gt;users&lt;/div&gt;&lt;table style=&quot;width: 100% ; font-size: 1em&quot; cellspacing=&quot;0&quot; cellpadding=&quot;2&quot;&gt;&lt;tbody&gt;&lt;tr&gt;&lt;td&gt;PK&lt;/td&gt;&lt;td&gt;id&lt;/td&gt;&lt;/tr&gt;&lt;tr&gt;&lt;td&gt;&lt;br&gt;&lt;/td&gt;&lt;td&gt;firstname&lt;/td&gt;&lt;/tr&gt;&lt;tr&gt;&lt;td&gt;&lt;br&gt;&lt;/td&gt;&lt;td&gt;lastname&lt;/td&gt;&lt;/tr&gt;&lt;tr&gt;&lt;td&gt;&lt;br&gt;&lt;/td&gt;&lt;td&gt;email&lt;br&gt;&lt;/td&gt;&lt;/tr&gt;&lt;tr&gt;&lt;td&gt;&lt;br&gt;&lt;/td&gt;&lt;td&gt;placeofbirth&lt;br&gt;birthdate&lt;br&gt;country&lt;br&gt;currentLocation&lt;br&gt;timezone&lt;br&gt;phone&lt;br&gt;status&lt;br&gt;createdAt&lt;br&gt;updatedAt&lt;br&gt;&lt;/td&gt;&lt;/tr&gt;&lt;/tbody&gt;&lt;/table&gt;" style="verticalAlign=top;align=left;overflow=fill;html=1;rounded=0;shadow=0;comic=0;labelBackgroundColor=none;strokeWidth=1;fontFamily=Verdana;fontSize=12" parent="1" vertex="1">
          <mxGeometry x="295" y="111" width="150" height="230" as="geometry" />
        </mxCell>
        <mxCell id="gqJdRy2gt7oDahpHLYhy-18" value="&lt;div style=&quot;box-sizing: border-box ; width: 100% ; background: #e4e4e4 ; padding: 2px&quot;&gt;client&lt;/div&gt;&lt;table style=&quot;width: 100% ; font-size: 1em&quot; cellspacing=&quot;0&quot; cellpadding=&quot;2&quot;&gt;&lt;tbody&gt;&lt;tr&gt;&lt;td&gt;PK&lt;/td&gt;&lt;td&gt;id&lt;/td&gt;&lt;/tr&gt;&lt;tr&gt;&lt;td&gt;&lt;br&gt;&lt;/td&gt;&lt;td&gt;nik&lt;/td&gt;&lt;/tr&gt;&lt;tr&gt;&lt;td&gt;&lt;br&gt;&lt;/td&gt;&lt;td&gt;passwordNumber &lt;br&gt;&lt;/td&gt;&lt;/tr&gt;&lt;tr&gt;&lt;td&gt;&lt;br&gt;&lt;/td&gt;&lt;td&gt;firstname&lt;br&gt;&lt;/td&gt;&lt;/tr&gt;&lt;tr&gt;&lt;td&gt;&lt;br&gt;&lt;/td&gt;&lt;td&gt;lastname&lt;br&gt;&lt;/td&gt;&lt;/tr&gt;&lt;tr&gt;&lt;td&gt;&lt;br&gt;&lt;/td&gt;&lt;td&gt;placeBirth &lt;br&gt;&lt;/td&gt;&lt;/tr&gt;&lt;tr&gt;&lt;td&gt;&lt;br&gt;&lt;/td&gt;&lt;td&gt;dateBirth &lt;br&gt;&lt;/td&gt;&lt;/tr&gt;&lt;tr&gt;&lt;td&gt;&lt;br&gt;&lt;/td&gt;&lt;td&gt;nationality&lt;br&gt;&lt;/td&gt;&lt;/tr&gt;&lt;tr&gt;&lt;td&gt;&lt;br&gt;&lt;/td&gt;&lt;td&gt;gender&lt;br&gt;&lt;/td&gt;&lt;/tr&gt;&lt;tr&gt;&lt;td&gt;&lt;br&gt;&lt;/td&gt;&lt;td&gt;occupation&lt;br&gt;&lt;/td&gt;&lt;/tr&gt;&lt;tr&gt;&lt;td&gt;&lt;br&gt;&lt;/td&gt;&lt;td&gt;address&lt;br&gt;&lt;/td&gt;&lt;/tr&gt;&lt;tr&gt;&lt;td&gt;&lt;br&gt;&lt;/td&gt;&lt;td&gt;email&lt;br&gt;contactPerson &lt;br&gt;officeNumber &lt;br&gt;joinDate &lt;br&gt;marital&lt;br&gt;status&lt;br&gt;createdAt &lt;br&gt;updatedAt&lt;br&gt;&lt;/td&gt;&lt;/tr&gt;&lt;/tbody&gt;&lt;/table&gt;" style="verticalAlign=top;align=left;overflow=fill;html=1;rounded=0;shadow=0;comic=0;labelBackgroundColor=none;strokeWidth=1;fontFamily=Verdana;fontSize=12" parent="1" vertex="1">
          <mxGeometry x="295" y="391" width="150" height="350" as="geometry" />
        </mxCell>
        <mxCell id="gqJdRy2gt7oDahpHLYhy-19" value="&lt;div style=&quot;box-sizing:border-box;width:100%;background:#e4e4e4;padding:2px;&quot;&gt;employees&lt;/div&gt;&lt;table style=&quot;width:100%;font-size:1em;&quot; cellspacing=&quot;0&quot; cellpadding=&quot;2&quot;&gt;&lt;tbody&gt;&lt;tr&gt;&lt;td&gt;PK&lt;/td&gt;&lt;td&gt;id&lt;/td&gt;&lt;/tr&gt;&lt;tr&gt;&lt;td&gt;&lt;br&gt;&lt;/td&gt;&lt;td&gt;employeeId&lt;/td&gt;&lt;/tr&gt;&lt;tr&gt;&lt;td&gt;&lt;br&gt;&lt;/td&gt;&lt;td&gt;name&lt;br&gt;placeBirth &lt;br&gt;dateBirth &lt;br&gt;email&lt;br&gt;gender&lt;br&gt;bloodType &lt;br&gt;address&lt;br&gt;rt&lt;br&gt;rw&lt;br&gt;village&lt;br&gt;districts&lt;br&gt;religion&lt;br&gt;marital&lt;br&gt;occupation&lt;br&gt;citizen&lt;br&gt;phoneNumber &lt;br&gt;status&lt;br&gt;createdAt &lt;br&gt;updatedAt&lt;br&gt;&lt;/td&gt;&lt;/tr&gt;&lt;/tbody&gt;&lt;/table&gt;" style="verticalAlign=top;align=left;overflow=fill;html=1;rounded=0;shadow=0;comic=0;labelBackgroundColor=none;strokeWidth=1;fontFamily=Verdana;fontSize=12" parent="1" vertex="1">
          <mxGeometry x="75" y="391" width="130" height="350" as="geometry" />
        </mxCell>
        <mxCell id="uBvkhlPtq-jRnEvmxl-y-1" value="&lt;div style=&quot;box-sizing: border-box ; width: 100% ; background: #e4e4e4 ; padding: 2px&quot;&gt;consult&lt;/div&gt;&lt;table style=&quot;width: 100% ; font-size: 1em&quot; cellspacing=&quot;0&quot; cellpadding=&quot;2&quot;&gt;&lt;tbody&gt;&lt;tr&gt;&lt;td&gt;PK&lt;/td&gt;&lt;td&gt;id&lt;/td&gt;&lt;/tr&gt;&lt;tr&gt;&lt;td&gt;&lt;br&gt;&lt;/td&gt;&lt;td&gt;userid&lt;br&gt;noTransaction &lt;br&gt;clientId&lt;br&gt;PIC&lt;br&gt;transactionDate&lt;br&gt;createdAt&lt;br&gt;updatedAt&lt;br&gt;&lt;/td&gt;&lt;/tr&gt;&lt;tr&gt;&lt;td&gt;&lt;br&gt;&lt;/td&gt;&lt;td&gt;&lt;br&gt;&lt;/td&gt;&lt;/tr&gt;&lt;tr&gt;&lt;td&gt;&lt;br&gt;&lt;/td&gt;&lt;td&gt;&lt;br&gt;&lt;/td&gt;&lt;/tr&gt;&lt;/tbody&gt;&lt;/table&gt;" style="verticalAlign=top;align=left;overflow=fill;html=1;rounded=0;shadow=0;comic=0;labelBackgroundColor=none;strokeWidth=1;fontFamily=Verdana;fontSize=12" parent="1" vertex="1">
          <mxGeometry x="525" y="272" width="130" height="149" as="geometry" />
        </mxCell>
        <mxCell id="uBvkhlPtq-jRnEvmxl-y-4" value="" style="edgeStyle=entityRelationEdgeStyle;fontSize=12;html=1;endArrow=ERmandOne;startArrow=ERmandOne;rounded=0;exitX=1;exitY=0.25;exitDx=0;exitDy=0;" parent="1" source="gqJdRy2gt7oDahpHLYhy-11" edge="1">
          <mxGeometry width="100" height="100" relative="1" as="geometry">
            <mxPoint x="193.92000000000002" y="191" as="sourcePoint" />
            <mxPoint x="295" y="137" as="targetPoint" />
          </mxGeometry>
        </mxCell>
        <mxCell id="uBvkhlPtq-jRnEvmxl-y-6" value="" style="edgeStyle=entityRelationEdgeStyle;fontSize=12;html=1;endArrow=ERoneToMany;rounded=0;exitX=1.011;exitY=0.403;exitDx=0;exitDy=0;exitPerimeter=0;entryX=-0.011;entryY=0.342;entryDx=0;entryDy=0;entryPerimeter=0;" parent="1" source="uBvkhlPtq-jRnEvmxl-y-1" target="gqJdRy2gt7oDahpHLYhy-5" edge="1">
          <mxGeometry width="100" height="100" relative="1" as="geometry">
            <mxPoint x="705" y="352" as="sourcePoint" />
            <mxPoint x="775" y="352" as="targetPoint" />
          </mxGeometry>
        </mxCell>
        <mxCell id="uBvkhlPtq-jRnEvmxl-y-7" value="" style="edgeStyle=entityRelationEdgeStyle;fontSize=12;html=1;endArrow=ERoneToMany;rounded=0;exitX=1;exitY=0.45;exitDx=0;exitDy=0;exitPerimeter=0;entryX=0.017;entryY=0.379;entryDx=0;entryDy=0;entryPerimeter=0;" parent="1" source="gqJdRy2gt7oDahpHLYhy-8" target="vZBu-MFpz_Ch6dwJO-_2-1" edge="1">
          <mxGeometry width="100" height="100" relative="1" as="geometry">
            <mxPoint x="925" y="161" as="sourcePoint" />
            <mxPoint x="995" y="143" as="targetPoint" />
          </mxGeometry>
        </mxCell>
        <mxCell id="uBvkhlPtq-jRnEvmxl-y-14" value="" style="edgeStyle=entityRelationEdgeStyle;fontSize=12;html=1;endArrow=ERoneToMany;rounded=0;entryX=-0.006;entryY=0.377;entryDx=0;entryDy=0;exitX=1.006;exitY=0.113;exitDx=0;exitDy=0;entryPerimeter=0;exitPerimeter=0;" parent="1" source="gqJdRy2gt7oDahpHLYhy-13" target="uBvkhlPtq-jRnEvmxl-y-1" edge="1">
          <mxGeometry width="100" height="100" relative="1" as="geometry">
            <mxPoint x="485" y="197.25" as="sourcePoint" />
            <mxPoint x="595" y="174.75" as="targetPoint" />
          </mxGeometry>
        </mxCell>
        <mxCell id="uBvkhlPtq-jRnEvmxl-y-15" value="" style="edgeStyle=entityRelationEdgeStyle;fontSize=12;html=1;endArrow=ERoneToMany;rounded=0;entryX=-0.011;entryY=0.336;entryDx=0;entryDy=0;exitX=1;exitY=0.113;exitDx=0;exitDy=0;entryPerimeter=0;exitPerimeter=0;" parent="1" source="gqJdRy2gt7oDahpHLYhy-13" target="gqJdRy2gt7oDahpHLYhy-8" edge="1">
          <mxGeometry width="100" height="100" relative="1" as="geometry">
            <mxPoint x="514.9999999999999" y="96.98000000000002" as="sourcePoint" />
            <mxPoint x="592.84" y="281" as="targetPoint" />
          </mxGeometry>
        </mxCell>
        <mxCell id="uBvkhlPtq-jRnEvmxl-y-19" value="" style="edgeStyle=entityRelationEdgeStyle;fontSize=12;html=1;endArrow=ERoneToMany;rounded=0;entryX=0;entryY=0.5;entryDx=0;entryDy=0;exitX=1;exitY=0.057;exitDx=0;exitDy=0;exitPerimeter=0;" parent="1" source="gqJdRy2gt7oDahpHLYhy-18" target="uBvkhlPtq-jRnEvmxl-y-1" edge="1">
          <mxGeometry width="100" height="100" relative="1" as="geometry">
            <mxPoint x="485" y="531" as="sourcePoint" />
            <mxPoint x="585" y="431" as="targetPoint" />
          </mxGeometry>
        </mxCell>
        <mxCell id="uBvkhlPtq-jRnEvmxl-y-21" value="" style="edgeStyle=entityRelationEdgeStyle;fontSize=12;html=1;endArrow=ERmandOne;startArrow=ERmandOne;rounded=0;exitX=1.018;exitY=0.421;exitDx=0;exitDy=0;entryX=-0.022;entryY=0.362;entryDx=0;entryDy=0;entryPerimeter=0;exitPerimeter=0;" parent="1" source="gqJdRy2gt7oDahpHLYhy-5" target="gqJdRy2gt7oDahpHLYhy-9" edge="1">
          <mxGeometry width="100" height="100" relative="1" as="geometry">
            <mxPoint x="985" y="351" as="sourcePoint" />
            <mxPoint x="1025" y="431" as="targetPoint" />
          </mxGeometry>
        </mxCell>
        <mxCell id="vZBu-MFpz_Ch6dwJO-_2-1" value="&lt;div style=&quot;box-sizing: border-box ; width: 100% ; background: #e4e4e4 ; padding: 2px&quot;&gt;&lt;div style=&quot;box-sizing: border-box ; width: 100% ; background: #e4e4e4 ; padding: 2px&quot;&gt;temp_consult_details&lt;/div&gt;&lt;/div&gt;&lt;table style=&quot;width: 100% ; font-size: 1em&quot; cellspacing=&quot;0&quot; cellpadding=&quot;2&quot;&gt;&lt;tbody&gt;&lt;tr&gt;&lt;td&gt;PK&lt;/td&gt;&lt;td&gt;id&lt;/td&gt;&lt;/tr&gt;&lt;tr&gt;&lt;td&gt;&lt;br&gt;&lt;/td&gt;&lt;td&gt;userid&lt;/td&gt;&lt;/tr&gt;&lt;tr&gt;&lt;td&gt;&lt;br&gt;&lt;/td&gt;&lt;td&gt;noTransaction &lt;br&gt;&lt;/td&gt;&lt;/tr&gt;&lt;tr&gt;&lt;td&gt;&lt;br&gt;&lt;/td&gt;&lt;td&gt;CaseId &lt;br&gt;&lt;/td&gt;&lt;/tr&gt;&lt;tr&gt;&lt;td&gt;&lt;br&gt;&lt;/td&gt;&lt;td&gt;CaseName &lt;br&gt;&lt;/td&gt;&lt;/tr&gt;&lt;tr&gt;&lt;td&gt;&lt;br&gt;&lt;/td&gt;&lt;td&gt;quantity&lt;br&gt;price&lt;br&gt;discount&lt;br&gt;createdAt&lt;br&gt;updatedAt&lt;br&gt;&lt;/td&gt;&lt;/tr&gt;&lt;/tbody&gt;&lt;/table&gt;" style="verticalAlign=top;align=left;overflow=fill;html=1;rounded=0;shadow=0;comic=0;labelBackgroundColor=none;strokeWidth=1;fontFamily=Verdana;fontSize=12" parent="1" vertex="1">
          <mxGeometry x="835" y="111" width="140" height="190" as="geometry" />
        </mxCell>
      </root>
    </mxGraphModel>
  </diagram>
  <diagram id="xo46qPbhxP5kn0KTRB8I" name="Page-4">
    <mxGraphModel dx="1422" dy="844" grid="1" gridSize="10" guides="1" tooltips="1" connect="1" arrows="1" fold="1" page="1" pageScale="1" pageWidth="1169" pageHeight="827" math="0" shadow="0">
      <root>
        <mxCell id="0" />
        <mxCell id="1" parent="0" />
        <mxCell id="cqR3KcZ43krQghv3U6uq-16" value="" style="strokeWidth=1;shadow=0;dashed=0;align=center;html=1;shape=mxgraph.mockup.forms.rrect;rSize=0;strokeColor=#999999;fillColor=#ffffff;" vertex="1" parent="1">
          <mxGeometry x="70" y="80" width="240" height="300" as="geometry" />
        </mxCell>
        <mxCell id="cqR3KcZ43krQghv3U6uq-17" value="&lt;div align=&quot;center&quot;&gt;Login&lt;/div&gt;" style="strokeWidth=1;shadow=0;dashed=0;align=center;html=1;shape=mxgraph.mockup.forms.anchor;fontSize=12;fontColor=#666666;align=left;resizeWidth=1;spacingLeft=0;" vertex="1" parent="cqR3KcZ43krQghv3U6uq-16">
          <mxGeometry width="120" height="20" relative="1" as="geometry">
            <mxPoint x="10" y="10" as="offset" />
          </mxGeometry>
        </mxCell>
        <mxCell id="cqR3KcZ43krQghv3U6uq-18" value="" style="shape=line;strokeColor=#ddeeff;strokeWidth=2;html=1;resizeWidth=1;" vertex="1" parent="cqR3KcZ43krQghv3U6uq-16">
          <mxGeometry width="216" height="10" relative="1" as="geometry">
            <mxPoint x="10" y="30" as="offset" />
          </mxGeometry>
        </mxCell>
        <mxCell id="cqR3KcZ43krQghv3U6uq-19" value="Email or Username:" style="strokeWidth=1;shadow=0;dashed=0;align=center;html=1;shape=mxgraph.mockup.forms.anchor;fontSize=12;fontColor=#666666;align=left;resizeWidth=1;spacingLeft=0;" vertex="1" parent="cqR3KcZ43krQghv3U6uq-16">
          <mxGeometry width="120" height="20" relative="1" as="geometry">
            <mxPoint x="10" y="40" as="offset" />
          </mxGeometry>
        </mxCell>
        <mxCell id="cqR3KcZ43krQghv3U6uq-20" value="" style="strokeWidth=1;shadow=0;dashed=0;align=center;html=1;shape=mxgraph.mockup.forms.rrect;rSize=0;strokeColor=#999999;fontColor=#666666;align=left;spacingLeft=5;resizeWidth=1;" vertex="1" parent="cqR3KcZ43krQghv3U6uq-16">
          <mxGeometry width="180" height="25" relative="1" as="geometry">
            <mxPoint x="10" y="60" as="offset" />
          </mxGeometry>
        </mxCell>
        <mxCell id="cqR3KcZ43krQghv3U6uq-21" value="Password:" style="strokeWidth=1;shadow=0;dashed=0;align=center;html=1;shape=mxgraph.mockup.forms.anchor;fontSize=12;fontColor=#666666;align=left;resizeWidth=1;spacingLeft=0;" vertex="1" parent="cqR3KcZ43krQghv3U6uq-16">
          <mxGeometry width="120" height="20" relative="1" as="geometry">
            <mxPoint x="10" y="95" as="offset" />
          </mxGeometry>
        </mxCell>
        <mxCell id="cqR3KcZ43krQghv3U6uq-22" value="" style="strokeWidth=1;shadow=0;dashed=0;align=center;html=1;shape=mxgraph.mockup.forms.rrect;rSize=0;strokeColor=#999999;fontColor=#666666;align=left;spacingLeft=5;resizeWidth=1;" vertex="1" parent="cqR3KcZ43krQghv3U6uq-16">
          <mxGeometry width="180" height="25" relative="1" as="geometry">
            <mxPoint x="10" y="115" as="offset" />
          </mxGeometry>
        </mxCell>
        <mxCell id="cqR3KcZ43krQghv3U6uq-24" value="Forgot Password?" style="strokeWidth=1;shadow=0;dashed=0;align=center;html=1;shape=mxgraph.mockup.forms.anchor;fontSize=12;fontColor=#9999ff;align=left;spacingLeft=0;fontStyle=4;resizeWidth=1;" vertex="1" parent="cqR3KcZ43krQghv3U6uq-16">
          <mxGeometry y="1" width="180" height="20" relative="1" as="geometry">
            <mxPoint x="10" y="-110" as="offset" />
          </mxGeometry>
        </mxCell>
        <mxCell id="cqR3KcZ43krQghv3U6uq-25" value="" style="shape=line;strokeColor=#ddeeff;strokeWidth=2;html=1;resizeWidth=1;" vertex="1" parent="cqR3KcZ43krQghv3U6uq-16">
          <mxGeometry y="1" width="216" height="10" relative="1" as="geometry">
            <mxPoint x="10" y="-90" as="offset" />
          </mxGeometry>
        </mxCell>
        <mxCell id="cqR3KcZ43krQghv3U6uq-26" value="&lt;pre dir=&quot;ltr&quot; style=&quot;text-align:left&quot; id=&quot;tw-target-text&quot; data-placeholder=&quot;Terjemahan&quot; class=&quot;tw-data-text tw-text-large tw-ta&quot;&gt;&lt;span class=&quot;Y2IQFc&quot; lang=&quot;en&quot;&gt;new user? please register first&lt;/span&gt;&lt;/pre&gt;" style="strokeWidth=1;shadow=0;dashed=0;align=center;html=1;shape=mxgraph.mockup.forms.anchor;fontSize=12;fontColor=#666666;align=left;spacingLeft=0;resizeWidth=1;" vertex="1" parent="cqR3KcZ43krQghv3U6uq-16">
          <mxGeometry y="1" width="180" height="20" relative="1" as="geometry">
            <mxPoint x="10" y="-70" as="offset" />
          </mxGeometry>
        </mxCell>
        <mxCell id="cqR3KcZ43krQghv3U6uq-2" value="SignIn" style="rounded=1;whiteSpace=wrap;html=1;arcSize=50;" vertex="1" parent="cqR3KcZ43krQghv3U6uq-16">
          <mxGeometry x="10" y="150" width="80" height="30" as="geometry" />
        </mxCell>
        <mxCell id="cqR3KcZ43krQghv3U6uq-1" value="SignUp" style="rounded=1;whiteSpace=wrap;html=1;arcSize=50;" vertex="1" parent="cqR3KcZ43krQghv3U6uq-16">
          <mxGeometry x="15" y="260" width="80" height="30" as="geometry" />
        </mxCell>
        <mxCell id="cqR3KcZ43krQghv3U6uq-28" value="&lt;div&gt;&lt;br&gt;&lt;/div&gt;&lt;div&gt;Halaman index atau utama&lt;/div&gt;&lt;div&gt;&lt;br&gt;&lt;/div&gt;" style="text;html=1;align=center;verticalAlign=middle;resizable=0;points=[];autosize=1;strokeColor=none;fillColor=none;" vertex="1" parent="1">
          <mxGeometry x="100" y="20" width="170" height="60" as="geometry" />
        </mxCell>
      </root>
    </mxGraphModel>
  </diagram>
  <diagram id="V7ZMVHmApg-aSOmE9mDA" name="Page-5">
    <mxGraphModel dx="1422" dy="844" grid="1" gridSize="13" guides="1" tooltips="1" connect="1" arrows="1" fold="1" page="1" pageScale="1" pageWidth="1169" pageHeight="827" math="0" shadow="0">
      <root>
        <mxCell id="0" />
        <mxCell id="1" parent="0" />
        <mxCell id="cVCnYq54btTsb4PNbmWC-1" value="&lt;div&gt;Tampilan halaman user&lt;/div&gt;&lt;div&gt;&lt;br&gt;&lt;/div&gt;" style="text;html=1;align=center;verticalAlign=middle;resizable=0;points=[];autosize=1;strokeColor=none;fillColor=none;" vertex="1" parent="1">
          <mxGeometry x="188.5" y="30" width="150" height="40" as="geometry" />
        </mxCell>
        <mxCell id="cVCnYq54btTsb4PNbmWC-3" value="&lt;span style=&quot;white-space: pre;&quot;&gt;	&lt;/span&gt;&lt;span style=&quot;white-space: pre;&quot;&gt;	&lt;/span&gt;&lt;span style=&quot;white-space: pre;&quot;&gt;	&lt;/span&gt;&lt;span style=&quot;white-space: pre;&quot;&gt;	&lt;/span&gt;&lt;span style=&quot;white-space: pre;&quot;&gt;	&lt;/span&gt;&lt;span style=&quot;white-space: pre;&quot;&gt;	&lt;/span&gt;&lt;span style=&quot;white-space: pre;&quot;&gt;	&lt;/span&gt;&lt;span style=&quot;white-space: pre;&quot;&gt;	&lt;/span&gt;Header" style="strokeWidth=1;shadow=0;dashed=0;align=center;html=1;shape=mxgraph.mockup.forms.rrect;fillColor=#ffffff;rSize=0;fontColor=#666666;align=left;spacingLeft=3;strokeColor=#999999;" vertex="1" parent="1">
          <mxGeometry x="52.5" y="76" width="424" height="40" as="geometry" />
        </mxCell>
        <mxCell id="cVCnYq54btTsb4PNbmWC-7" value="&lt;span style=&quot;white-space: pre;&quot;&gt;	&lt;/span&gt;&lt;span style=&quot;white-space: pre;&quot;&gt;	&lt;/span&gt;&lt;span style=&quot;white-space: pre;&quot;&gt;	&lt;/span&gt;&lt;span style=&quot;white-space: pre;&quot;&gt;	&lt;/span&gt;&lt;span style=&quot;white-space: pre;&quot;&gt;	&lt;/span&gt;&lt;span style=&quot;white-space: pre;&quot;&gt;	&lt;/span&gt;&lt;span style=&quot;white-space: pre;&quot;&gt;	&lt;/span&gt;&lt;span style=&quot;white-space: pre;&quot;&gt;	&lt;/span&gt;Footer" style="strokeWidth=1;shadow=0;dashed=0;align=center;html=1;shape=mxgraph.mockup.forms.rrect;fillColor=#ffffff;rSize=0;fontColor=#666666;align=left;spacingLeft=3;strokeColor=#999999;" vertex="1" parent="1">
          <mxGeometry x="52" y="414" width="424" height="41" as="geometry" />
        </mxCell>
        <mxCell id="cVCnYq54btTsb4PNbmWC-12" value="&lt;span style=&quot;white-space: pre;&quot;&gt;	&lt;/span&gt;&lt;span style=&quot;white-space: pre;&quot;&gt;	&lt;/span&gt;&lt;span style=&quot;white-space: pre;&quot;&gt;	&lt;/span&gt;&lt;span style=&quot;white-space: pre;&quot;&gt;	&lt;/span&gt;&lt;span style=&quot;white-space: pre;&quot;&gt;	&lt;/span&gt;&lt;span style=&quot;white-space: pre;&quot;&gt;	&lt;/span&gt;&lt;span style=&quot;white-space: pre;&quot;&gt;	&lt;/span&gt;&lt;span style=&quot;white-space: pre;&quot;&gt;	&lt;/span&gt;User Setup" style="strokeWidth=1;shadow=0;dashed=0;align=center;html=1;shape=mxgraph.mockup.forms.rrect;fillColor=#ffffff;rSize=0;fontColor=#666666;align=left;spacingLeft=3;strokeColor=#999999;verticalAlign=top;whiteSpace=wrap;" vertex="1" parent="1">
          <mxGeometry x="52" y="118" width="424" height="296" as="geometry" />
        </mxCell>
        <mxCell id="cVCnYq54btTsb4PNbmWC-17" value="&lt;font style=&quot;font-size: 12px;&quot; color=&quot;#1A1A1A&quot;&gt;Create New User&lt;/font&gt;" style="html=1;shadow=0;dashed=0;shape=mxgraph.bootstrap.rrect;rSize=5;fillColor=#CCCCCC;strokeColor=none;align=center;spacing=15;fontSize=14;fontColor=#ffffff;" vertex="1" parent="1">
          <mxGeometry x="358.5" y="141" width="104" height="26" as="geometry" />
        </mxCell>
        <mxCell id="cVCnYq54btTsb4PNbmWC-20" value="&lt;div align=&quot;left&quot;&gt;Data User&lt;/div&gt;" style="rounded=1;whiteSpace=wrap;html=1;fontSize=12;align=left;" vertex="1" parent="1">
          <mxGeometry x="66.5" y="182" width="396" height="26" as="geometry" />
        </mxCell>
        <mxCell id="cVCnYq54btTsb4PNbmWC-21" value="&lt;div align=&quot;left&quot;&gt;Data User&lt;/div&gt;" style="rounded=1;whiteSpace=wrap;html=1;fontSize=12;align=left;" vertex="1" parent="1">
          <mxGeometry x="66.5" y="221" width="396" height="26" as="geometry" />
        </mxCell>
        <mxCell id="cVCnYq54btTsb4PNbmWC-22" value="&lt;div align=&quot;left&quot;&gt;Data User&lt;/div&gt;" style="rounded=1;whiteSpace=wrap;html=1;fontSize=12;align=left;" vertex="1" parent="1">
          <mxGeometry x="65.5" y="265" width="396" height="26" as="geometry" />
        </mxCell>
        <mxCell id="cVCnYq54btTsb4PNbmWC-23" value="&lt;div&gt;Tampilan create new user&lt;/div&gt;&lt;div&gt;&lt;br&gt;&lt;/div&gt;" style="text;whiteSpace=wrap;html=1;fontSize=12;" vertex="1" parent="1">
          <mxGeometry x="799.5" y="30" width="169" height="52" as="geometry" />
        </mxCell>
        <mxCell id="cVCnYq54btTsb4PNbmWC-53" value="&lt;div&gt;Create New User&lt;/div&gt;&lt;div&gt;&lt;br&gt;&lt;/div&gt;&lt;div&gt;&lt;br&gt;&lt;/div&gt;" style="strokeWidth=1;shadow=0;dashed=0;align=center;html=1;shape=mxgraph.mockup.forms.rrect;fillColor=#ffffff;rSize=0;fontColor=#666666;align=left;spacingLeft=3;strokeColor=#999999;verticalAlign=top;whiteSpace=wrap;" vertex="1" parent="1">
          <mxGeometry x="676" y="76" width="416" height="340" as="geometry" />
        </mxCell>
        <mxCell id="cVCnYq54btTsb4PNbmWC-54" value="Enter First Name" style="rounded=1;whiteSpace=wrap;html=1;fontSize=12;align=left;" vertex="1" parent="1">
          <mxGeometry x="686" y="128" width="396" height="26" as="geometry" />
        </mxCell>
        <mxCell id="cVCnYq54btTsb4PNbmWC-55" value="Enter Last Name" style="rounded=1;whiteSpace=wrap;html=1;fontSize=12;align=left;" vertex="1" parent="1">
          <mxGeometry x="686" y="167" width="396" height="26" as="geometry" />
        </mxCell>
        <mxCell id="cVCnYq54btTsb4PNbmWC-56" value="Enter Email" style="rounded=1;whiteSpace=wrap;html=1;fontSize=12;align=left;" vertex="1" parent="1">
          <mxGeometry x="686" y="211" width="396" height="26" as="geometry" />
        </mxCell>
        <mxCell id="cVCnYq54btTsb4PNbmWC-57" value="" style="rounded=1;whiteSpace=wrap;html=1;fontSize=12;align=left;" vertex="1" parent="1">
          <mxGeometry x="686" y="258" width="396" height="26" as="geometry" />
        </mxCell>
        <mxCell id="cVCnYq54btTsb4PNbmWC-58" value="" style="rounded=1;whiteSpace=wrap;html=1;fontSize=12;align=left;" vertex="1" parent="1">
          <mxGeometry x="686" y="297" width="396" height="26" as="geometry" />
        </mxCell>
        <mxCell id="cVCnYq54btTsb4PNbmWC-59" value="&lt;font color=&quot;#1A1A1A&quot;&gt;submit&lt;/font&gt;" style="html=1;shadow=0;dashed=0;shape=mxgraph.bootstrap.rrect;rSize=5;fillColor=#CCCCCC;strokeColor=none;align=center;spacing=15;fontSize=14;fontColor=#ffffff;" vertex="1" parent="1">
          <mxGeometry x="1027" y="377" width="52" height="26" as="geometry" />
        </mxCell>
        <mxCell id="cVCnYq54btTsb4PNbmWC-60" value="&lt;font color=&quot;#1A1A1A&quot;&gt;cancel&lt;/font&gt;" style="html=1;shadow=0;dashed=0;shape=mxgraph.bootstrap.rrect;rSize=5;fillColor=#CCCCCC;strokeColor=none;align=center;spacing=15;fontSize=14;fontColor=#ffffff;" vertex="1" parent="1">
          <mxGeometry x="962" y="377" width="52" height="26" as="geometry" />
        </mxCell>
        <mxCell id="cVCnYq54btTsb4PNbmWC-61" value="&lt;span style=&quot;white-space: pre;&quot;&gt;	&lt;/span&gt;&lt;span style=&quot;white-space: pre;&quot;&gt;	&lt;/span&gt;&lt;span style=&quot;white-space: pre;&quot;&gt;	&lt;/span&gt;&lt;span style=&quot;white-space: pre;&quot;&gt;	&lt;/span&gt;&lt;span style=&quot;white-space: pre;&quot;&gt;	&lt;/span&gt;&lt;span style=&quot;white-space: pre;&quot;&gt;	&lt;/span&gt;&lt;span style=&quot;white-space: pre;&quot;&gt;	&lt;/span&gt;&lt;span style=&quot;white-space: pre;&quot;&gt;	&lt;/span&gt;Footer" style="strokeWidth=1;shadow=0;dashed=0;align=center;html=1;shape=mxgraph.mockup.forms.rrect;fillColor=#ffffff;rSize=0;fontColor=#666666;align=left;spacingLeft=3;strokeColor=#999999;" vertex="1" parent="1">
          <mxGeometry x="676" y="416" width="416" height="41" as="geometry" />
        </mxCell>
      </root>
    </mxGraphModel>
  </diagram>
  <diagram id="brVRfn0PeojUZAmQj0vO" name="Page-6">
    <mxGraphModel dx="1422" dy="844" grid="1" gridSize="13" guides="1" tooltips="1" connect="1" arrows="1" fold="1" page="1" pageScale="1" pageWidth="1169" pageHeight="827" math="0" shadow="0">
      <root>
        <mxCell id="0" />
        <mxCell id="1" parent="0" />
        <mxCell id="jhKSj8mz5NiRnVzC94av-1" value="&lt;div&gt;Tampilan halaman employee&lt;/div&gt;&lt;div&gt;&lt;br&gt;&lt;/div&gt;" style="text;html=1;align=center;verticalAlign=middle;resizable=0;points=[];autosize=1;strokeColor=none;fillColor=none;" vertex="1" parent="1">
          <mxGeometry x="172.5" y="31" width="182" height="39" as="geometry" />
        </mxCell>
        <mxCell id="jhKSj8mz5NiRnVzC94av-2" value="&lt;span style=&quot;white-space: pre;&quot;&gt;	&lt;/span&gt;&lt;span style=&quot;white-space: pre;&quot;&gt;	&lt;/span&gt;&lt;span style=&quot;white-space: pre;&quot;&gt;	&lt;/span&gt;&lt;span style=&quot;white-space: pre;&quot;&gt;	&lt;/span&gt;&lt;span style=&quot;white-space: pre;&quot;&gt;	&lt;/span&gt;&lt;span style=&quot;white-space: pre;&quot;&gt;	&lt;/span&gt;&lt;span style=&quot;white-space: pre;&quot;&gt;	&lt;/span&gt;&lt;span style=&quot;white-space: pre;&quot;&gt;	&lt;/span&gt;Header" style="strokeWidth=1;shadow=0;dashed=0;align=center;html=1;shape=mxgraph.mockup.forms.rrect;fillColor=#ffffff;rSize=0;fontColor=#666666;align=left;spacingLeft=3;strokeColor=#999999;" vertex="1" parent="1">
          <mxGeometry x="52.5" y="76" width="424" height="40" as="geometry" />
        </mxCell>
        <mxCell id="jhKSj8mz5NiRnVzC94av-3" value="&lt;span style=&quot;white-space: pre;&quot;&gt;	&lt;/span&gt;&lt;span style=&quot;white-space: pre;&quot;&gt;	&lt;/span&gt;&lt;span style=&quot;white-space: pre;&quot;&gt;	&lt;/span&gt;&lt;span style=&quot;white-space: pre;&quot;&gt;	&lt;/span&gt;&lt;span style=&quot;white-space: pre;&quot;&gt;	&lt;/span&gt;&lt;span style=&quot;white-space: pre;&quot;&gt;	&lt;/span&gt;&lt;span style=&quot;white-space: pre;&quot;&gt;	&lt;/span&gt;&lt;span style=&quot;white-space: pre;&quot;&gt;	&lt;/span&gt;Footer" style="strokeWidth=1;shadow=0;dashed=0;align=center;html=1;shape=mxgraph.mockup.forms.rrect;fillColor=#ffffff;rSize=0;fontColor=#666666;align=left;spacingLeft=3;strokeColor=#999999;" vertex="1" parent="1">
          <mxGeometry x="52" y="414" width="424" height="41" as="geometry" />
        </mxCell>
        <mxCell id="jhKSj8mz5NiRnVzC94av-4" value="&lt;span style=&quot;white-space: pre;&quot;&gt;	&lt;/span&gt;&lt;span style=&quot;white-space: pre;&quot;&gt;	&lt;/span&gt;&lt;span style=&quot;white-space: pre;&quot;&gt;	&lt;/span&gt;&lt;span style=&quot;white-space: pre;&quot;&gt;	&lt;/span&gt;&lt;span style=&quot;white-space: pre;&quot;&gt;	&lt;/span&gt;&lt;span style=&quot;white-space: pre;&quot;&gt;	&lt;/span&gt;&lt;span style=&quot;white-space: pre;&quot;&gt;	&lt;/span&gt;Employee Form" style="strokeWidth=1;shadow=0;dashed=0;align=center;html=1;shape=mxgraph.mockup.forms.rrect;fillColor=#ffffff;rSize=0;fontColor=#666666;align=left;spacingLeft=3;strokeColor=#999999;verticalAlign=top;whiteSpace=wrap;" vertex="1" parent="1">
          <mxGeometry x="52" y="118" width="424" height="296" as="geometry" />
        </mxCell>
        <mxCell id="jhKSj8mz5NiRnVzC94av-5" value="&lt;font style=&quot;font-size: 12px;&quot; color=&quot;#1A1A1A&quot;&gt;Create New Employee&lt;/font&gt;" style="html=1;shadow=0;dashed=0;shape=mxgraph.bootstrap.rrect;rSize=5;fillColor=#CCCCCC;strokeColor=none;align=center;spacing=15;fontSize=14;fontColor=#ffffff;" vertex="1" parent="1">
          <mxGeometry x="327" y="141" width="135.5" height="26" as="geometry" />
        </mxCell>
        <mxCell id="jhKSj8mz5NiRnVzC94av-6" value="&lt;div align=&quot;left&quot;&gt;Data Employee&lt;/div&gt;" style="rounded=1;whiteSpace=wrap;html=1;fontSize=12;align=left;" vertex="1" parent="1">
          <mxGeometry x="66.5" y="182" width="396" height="26" as="geometry" />
        </mxCell>
        <mxCell id="jhKSj8mz5NiRnVzC94av-7" value="&lt;div align=&quot;left&quot;&gt;Data Employee&lt;/div&gt;" style="rounded=1;whiteSpace=wrap;html=1;fontSize=12;align=left;" vertex="1" parent="1">
          <mxGeometry x="66.5" y="221" width="396" height="26" as="geometry" />
        </mxCell>
        <mxCell id="jhKSj8mz5NiRnVzC94av-8" value="&lt;div align=&quot;left&quot;&gt;Data Employee&lt;/div&gt;" style="rounded=1;whiteSpace=wrap;html=1;fontSize=12;align=left;" vertex="1" parent="1">
          <mxGeometry x="65.5" y="265" width="396" height="26" as="geometry" />
        </mxCell>
        <mxCell id="jhKSj8mz5NiRnVzC94av-9" value="&lt;div&gt;Tampilan create new employee&lt;/div&gt;&lt;div&gt;&lt;br&gt;&lt;/div&gt;" style="text;whiteSpace=wrap;html=1;fontSize=12;" vertex="1" parent="1">
          <mxGeometry x="799.5" y="30" width="175.5" height="52" as="geometry" />
        </mxCell>
        <mxCell id="jhKSj8mz5NiRnVzC94av-10" value="&lt;div&gt;Create New Employee&lt;br&gt;&lt;/div&gt;&lt;div&gt;&lt;br&gt;&lt;/div&gt;&lt;div&gt;&lt;br&gt;&lt;/div&gt;" style="strokeWidth=1;shadow=0;dashed=0;align=center;html=1;shape=mxgraph.mockup.forms.rrect;fillColor=#ffffff;rSize=0;fontColor=#666666;align=left;spacingLeft=3;strokeColor=#999999;verticalAlign=top;whiteSpace=wrap;" vertex="1" parent="1">
          <mxGeometry x="676" y="76" width="416" height="340" as="geometry" />
        </mxCell>
        <mxCell id="jhKSj8mz5NiRnVzC94av-11" value="Enter EmployeeId" style="rounded=1;whiteSpace=wrap;html=1;fontSize=12;align=left;" vertex="1" parent="1">
          <mxGeometry x="686" y="128" width="396" height="26" as="geometry" />
        </mxCell>
        <mxCell id="jhKSj8mz5NiRnVzC94av-12" value="Enter NIK" style="rounded=1;whiteSpace=wrap;html=1;fontSize=12;align=left;" vertex="1" parent="1">
          <mxGeometry x="686" y="167" width="396" height="26" as="geometry" />
        </mxCell>
        <mxCell id="jhKSj8mz5NiRnVzC94av-13" value="Enter Name" style="rounded=1;whiteSpace=wrap;html=1;fontSize=12;align=left;" vertex="1" parent="1">
          <mxGeometry x="686" y="211" width="396" height="26" as="geometry" />
        </mxCell>
        <mxCell id="jhKSj8mz5NiRnVzC94av-14" value="" style="rounded=1;whiteSpace=wrap;html=1;fontSize=12;align=left;" vertex="1" parent="1">
          <mxGeometry x="686" y="258" width="396" height="26" as="geometry" />
        </mxCell>
        <mxCell id="jhKSj8mz5NiRnVzC94av-15" value="" style="rounded=1;whiteSpace=wrap;html=1;fontSize=12;align=left;" vertex="1" parent="1">
          <mxGeometry x="686" y="297" width="396" height="26" as="geometry" />
        </mxCell>
        <mxCell id="jhKSj8mz5NiRnVzC94av-16" value="&lt;font color=&quot;#1A1A1A&quot;&gt;submit&lt;/font&gt;" style="html=1;shadow=0;dashed=0;shape=mxgraph.bootstrap.rrect;rSize=5;fillColor=#CCCCCC;strokeColor=none;align=center;spacing=15;fontSize=14;fontColor=#ffffff;" vertex="1" parent="1">
          <mxGeometry x="1027" y="377" width="52" height="26" as="geometry" />
        </mxCell>
        <mxCell id="jhKSj8mz5NiRnVzC94av-17" value="&lt;font color=&quot;#1A1A1A&quot;&gt;cancel&lt;/font&gt;" style="html=1;shadow=0;dashed=0;shape=mxgraph.bootstrap.rrect;rSize=5;fillColor=#CCCCCC;strokeColor=none;align=center;spacing=15;fontSize=14;fontColor=#ffffff;" vertex="1" parent="1">
          <mxGeometry x="962" y="377" width="52" height="26" as="geometry" />
        </mxCell>
        <mxCell id="jhKSj8mz5NiRnVzC94av-18" value="&lt;span style=&quot;white-space: pre;&quot;&gt;	&lt;/span&gt;&lt;span style=&quot;white-space: pre;&quot;&gt;	&lt;/span&gt;&lt;span style=&quot;white-space: pre;&quot;&gt;	&lt;/span&gt;&lt;span style=&quot;white-space: pre;&quot;&gt;	&lt;/span&gt;&lt;span style=&quot;white-space: pre;&quot;&gt;	&lt;/span&gt;&lt;span style=&quot;white-space: pre;&quot;&gt;	&lt;/span&gt;&lt;span style=&quot;white-space: pre;&quot;&gt;	&lt;/span&gt;&lt;span style=&quot;white-space: pre;&quot;&gt;	&lt;/span&gt;Footer" style="strokeWidth=1;shadow=0;dashed=0;align=center;html=1;shape=mxgraph.mockup.forms.rrect;fillColor=#ffffff;rSize=0;fontColor=#666666;align=left;spacingLeft=3;strokeColor=#999999;" vertex="1" parent="1">
          <mxGeometry x="676" y="416" width="416" height="41" as="geometry" />
        </mxCell>
      </root>
    </mxGraphModel>
  </diagram>
  <diagram id="5mVIS_KC0RQpHwAls0NO" name="Page-7">
    <mxGraphModel dx="1422" dy="844" grid="1" gridSize="13" guides="1" tooltips="1" connect="1" arrows="1" fold="1" page="1" pageScale="1" pageWidth="1169" pageHeight="827" math="0" shadow="0">
      <root>
        <mxCell id="0" />
        <mxCell id="1" parent="0" />
        <mxCell id="Ue3ZQlDe8iyN_ZsdvqKq-1" value="&lt;div&gt;Tampilan halaman client&lt;br&gt;&lt;/div&gt;&lt;div&gt;&lt;br&gt;&lt;/div&gt;" style="text;html=1;align=center;verticalAlign=middle;resizable=0;points=[];autosize=1;strokeColor=none;fillColor=none;" vertex="1" parent="1">
          <mxGeometry x="179.5" y="31" width="169" height="39" as="geometry" />
        </mxCell>
        <mxCell id="Ue3ZQlDe8iyN_ZsdvqKq-2" value="&lt;span style=&quot;white-space: pre;&quot;&gt;	&lt;/span&gt;&lt;span style=&quot;white-space: pre;&quot;&gt;	&lt;/span&gt;&lt;span style=&quot;white-space: pre;&quot;&gt;	&lt;/span&gt;&lt;span style=&quot;white-space: pre;&quot;&gt;	&lt;/span&gt;&lt;span style=&quot;white-space: pre;&quot;&gt;	&lt;/span&gt;&lt;span style=&quot;white-space: pre;&quot;&gt;	&lt;/span&gt;&lt;span style=&quot;white-space: pre;&quot;&gt;	&lt;/span&gt;&lt;span style=&quot;white-space: pre;&quot;&gt;	&lt;/span&gt;Header" style="strokeWidth=1;shadow=0;dashed=0;align=center;html=1;shape=mxgraph.mockup.forms.rrect;fillColor=#ffffff;rSize=0;fontColor=#666666;align=left;spacingLeft=3;strokeColor=#999999;" vertex="1" parent="1">
          <mxGeometry x="52.5" y="76" width="424" height="40" as="geometry" />
        </mxCell>
        <mxCell id="Ue3ZQlDe8iyN_ZsdvqKq-3" value="&lt;span style=&quot;white-space: pre;&quot;&gt;	&lt;/span&gt;&lt;span style=&quot;white-space: pre;&quot;&gt;	&lt;/span&gt;&lt;span style=&quot;white-space: pre;&quot;&gt;	&lt;/span&gt;&lt;span style=&quot;white-space: pre;&quot;&gt;	&lt;/span&gt;&lt;span style=&quot;white-space: pre;&quot;&gt;	&lt;/span&gt;&lt;span style=&quot;white-space: pre;&quot;&gt;	&lt;/span&gt;&lt;span style=&quot;white-space: pre;&quot;&gt;	&lt;/span&gt;&lt;span style=&quot;white-space: pre;&quot;&gt;	&lt;/span&gt;Footer" style="strokeWidth=1;shadow=0;dashed=0;align=center;html=1;shape=mxgraph.mockup.forms.rrect;fillColor=#ffffff;rSize=0;fontColor=#666666;align=left;spacingLeft=3;strokeColor=#999999;" vertex="1" parent="1">
          <mxGeometry x="52" y="414" width="424" height="41" as="geometry" />
        </mxCell>
        <mxCell id="Ue3ZQlDe8iyN_ZsdvqKq-4" value="&lt;span style=&quot;white-space: pre;&quot;&gt;	&lt;/span&gt;&lt;span style=&quot;white-space: pre;&quot;&gt;	&lt;/span&gt;&lt;span style=&quot;white-space: pre;&quot;&gt;	&lt;/span&gt;&lt;span style=&quot;white-space: pre;&quot;&gt;	&lt;/span&gt;&lt;span style=&quot;white-space: pre;&quot;&gt;	&lt;/span&gt;&lt;span style=&quot;white-space: pre;&quot;&gt;	&lt;/span&gt;&lt;span style=&quot;white-space: pre;&quot;&gt;	&lt;/span&gt;&lt;span style=&quot;white-space: pre;&quot;&gt;	&lt;/span&gt;Client" style="strokeWidth=1;shadow=0;dashed=0;align=center;html=1;shape=mxgraph.mockup.forms.rrect;fillColor=#ffffff;rSize=0;fontColor=#666666;align=left;spacingLeft=3;strokeColor=#999999;verticalAlign=top;whiteSpace=wrap;" vertex="1" parent="1">
          <mxGeometry x="52" y="118" width="424" height="296" as="geometry" />
        </mxCell>
        <mxCell id="Ue3ZQlDe8iyN_ZsdvqKq-5" value="&lt;font style=&quot;font-size: 12px;&quot; color=&quot;#1A1A1A&quot;&gt;Create New Client&lt;br&gt;&lt;/font&gt;" style="html=1;shadow=0;dashed=0;shape=mxgraph.bootstrap.rrect;rSize=5;fillColor=#CCCCCC;strokeColor=none;align=center;spacing=15;fontSize=14;fontColor=#ffffff;" vertex="1" parent="1">
          <mxGeometry x="327" y="141" width="135.5" height="26" as="geometry" />
        </mxCell>
        <mxCell id="Ue3ZQlDe8iyN_ZsdvqKq-6" value="&lt;div align=&quot;left&quot;&gt;Data Client&lt;br&gt;&lt;/div&gt;" style="rounded=1;whiteSpace=wrap;html=1;fontSize=12;align=left;" vertex="1" parent="1">
          <mxGeometry x="66.5" y="182" width="396" height="26" as="geometry" />
        </mxCell>
        <mxCell id="Ue3ZQlDe8iyN_ZsdvqKq-7" value="&lt;div align=&quot;left&quot;&gt;Data Client&lt;/div&gt;" style="rounded=1;whiteSpace=wrap;html=1;fontSize=12;align=left;" vertex="1" parent="1">
          <mxGeometry x="66.5" y="221" width="396" height="26" as="geometry" />
        </mxCell>
        <mxCell id="Ue3ZQlDe8iyN_ZsdvqKq-8" value="&lt;div align=&quot;left&quot;&gt;Data Client&lt;/div&gt;" style="rounded=1;whiteSpace=wrap;html=1;fontSize=12;align=left;" vertex="1" parent="1">
          <mxGeometry x="65.5" y="265" width="396" height="26" as="geometry" />
        </mxCell>
        <mxCell id="Ue3ZQlDe8iyN_ZsdvqKq-9" value="&lt;div&gt;Tampilan create new client&lt;br&gt;&lt;/div&gt;&lt;div&gt;&lt;br&gt;&lt;/div&gt;" style="text;whiteSpace=wrap;html=1;fontSize=12;" vertex="1" parent="1">
          <mxGeometry x="799.5" y="30" width="175.5" height="52" as="geometry" />
        </mxCell>
        <mxCell id="Ue3ZQlDe8iyN_ZsdvqKq-10" value="&lt;div&gt;Create New Client&lt;/div&gt;&lt;div&gt;&lt;br&gt;&lt;/div&gt;&lt;div&gt;&lt;br&gt;&lt;/div&gt;" style="strokeWidth=1;shadow=0;dashed=0;align=center;html=1;shape=mxgraph.mockup.forms.rrect;fillColor=#ffffff;rSize=0;fontColor=#666666;align=left;spacingLeft=3;strokeColor=#999999;verticalAlign=top;whiteSpace=wrap;" vertex="1" parent="1">
          <mxGeometry x="676" y="76" width="416" height="340" as="geometry" />
        </mxCell>
        <mxCell id="Ue3ZQlDe8iyN_ZsdvqKq-11" value="Enter NIK" style="rounded=1;whiteSpace=wrap;html=1;fontSize=12;align=left;" vertex="1" parent="1">
          <mxGeometry x="686" y="128" width="396" height="26" as="geometry" />
        </mxCell>
        <mxCell id="Ue3ZQlDe8iyN_ZsdvqKq-12" value="Enter Password Number" style="rounded=1;whiteSpace=wrap;html=1;fontSize=12;align=left;" vertex="1" parent="1">
          <mxGeometry x="686" y="167" width="396" height="26" as="geometry" />
        </mxCell>
        <mxCell id="Ue3ZQlDe8iyN_ZsdvqKq-13" value="Enter FirstName" style="rounded=1;whiteSpace=wrap;html=1;fontSize=12;align=left;" vertex="1" parent="1">
          <mxGeometry x="686" y="211" width="396" height="26" as="geometry" />
        </mxCell>
        <mxCell id="Ue3ZQlDe8iyN_ZsdvqKq-14" value="" style="rounded=1;whiteSpace=wrap;html=1;fontSize=12;align=left;" vertex="1" parent="1">
          <mxGeometry x="686" y="258" width="396" height="26" as="geometry" />
        </mxCell>
        <mxCell id="Ue3ZQlDe8iyN_ZsdvqKq-15" value="" style="rounded=1;whiteSpace=wrap;html=1;fontSize=12;align=left;" vertex="1" parent="1">
          <mxGeometry x="686" y="297" width="396" height="26" as="geometry" />
        </mxCell>
        <mxCell id="Ue3ZQlDe8iyN_ZsdvqKq-16" value="&lt;font color=&quot;#1A1A1A&quot;&gt;submit&lt;/font&gt;" style="html=1;shadow=0;dashed=0;shape=mxgraph.bootstrap.rrect;rSize=5;fillColor=#CCCCCC;strokeColor=none;align=center;spacing=15;fontSize=14;fontColor=#ffffff;" vertex="1" parent="1">
          <mxGeometry x="1027" y="377" width="52" height="26" as="geometry" />
        </mxCell>
        <mxCell id="Ue3ZQlDe8iyN_ZsdvqKq-17" value="&lt;font color=&quot;#1A1A1A&quot;&gt;cancel&lt;/font&gt;" style="html=1;shadow=0;dashed=0;shape=mxgraph.bootstrap.rrect;rSize=5;fillColor=#CCCCCC;strokeColor=none;align=center;spacing=15;fontSize=14;fontColor=#ffffff;" vertex="1" parent="1">
          <mxGeometry x="962" y="377" width="52" height="26" as="geometry" />
        </mxCell>
        <mxCell id="Ue3ZQlDe8iyN_ZsdvqKq-18" value="&lt;span style=&quot;white-space: pre;&quot;&gt;	&lt;/span&gt;&lt;span style=&quot;white-space: pre;&quot;&gt;	&lt;/span&gt;&lt;span style=&quot;white-space: pre;&quot;&gt;	&lt;/span&gt;&lt;span style=&quot;white-space: pre;&quot;&gt;	&lt;/span&gt;&lt;span style=&quot;white-space: pre;&quot;&gt;	&lt;/span&gt;&lt;span style=&quot;white-space: pre;&quot;&gt;	&lt;/span&gt;&lt;span style=&quot;white-space: pre;&quot;&gt;	&lt;/span&gt;&lt;span style=&quot;white-space: pre;&quot;&gt;	&lt;/span&gt;Footer" style="strokeWidth=1;shadow=0;dashed=0;align=center;html=1;shape=mxgraph.mockup.forms.rrect;fillColor=#ffffff;rSize=0;fontColor=#666666;align=left;spacingLeft=3;strokeColor=#999999;" vertex="1" parent="1">
          <mxGeometry x="676" y="416" width="416" height="41" as="geometry" />
        </mxCell>
      </root>
    </mxGraphModel>
  </diagram>
</mxfile>
